<svg width="19" height="19" viewBox="0 0 19 19" fill="none" xmlns="http://www.w3.org/2000/svg">
<path d="M0.75 9.08333C0.75 13.6858 4.48083 17.4167 9.08333 17.4167C13.6858 17.4167 17.4167 13.6858 17.4167 9.08333C17.4167 4.48083 13.6858 0.75 9.08333 0.75C4.48083 0.75 0.75 4.48083 0.75 9.08333Z" stroke="#838383" stroke-width="1.5" stroke-linecap="round" stroke-linejoin="round"/>
<path d="M9.91666 0.791626C9.91666 0.791626 12.4167 4.08329 12.4167 9.08329C12.4167 14.0833 9.91666 17.375 9.91666 17.375" stroke="#838383" stroke-width="1.5" stroke-linecap="round" stroke-linejoin="round"/>
<path d="M8.25 17.375C8.25 17.375 5.75 14.0833 5.75 9.08329C5.75 4.08329 8.25 0.791626 8.25 0.791626" stroke="#838383" stroke-width="1.5" stroke-linecap="round" stroke-linejoin="round"/>
<path d="M1.275 12H16.8917" stroke="#838383" stroke-width="1.5" stroke-linecap="round" stroke-linejoin="round"/>
<path d="M1.275 6.16663H16.8917" stroke="#838383" stroke-width="1.5" stroke-linecap="round" stroke-linejoin="round"/>
</svg>
